<svg width="137" height="30" viewBox="0 0 137 30" fill="none" xmlns="http://www.w3.org/2000/svg">
<path d="M24.3627 21.5072C24.3627 27.0904 19.2198 30 12.7534 30C9.65255 30 3.18614 29.017 0.387811 23.9056C-0.595385 22.1363 0.274365 18.9515 3.18614 18.9515C4.39623 18.9515 5.64413 19.6592 6.21136 21.1927C7.308 24.1809 9.00969 27.4836 13.5853 27.4836C15.1736 27.4836 17.0643 26.4613 17.0643 24.4561C17.0643 18.0472 1.03067 17.0642 1.03067 7.74574C1.03067 1.37615 7.87523 0 11.808 0C15.8164 0 19.9383 1.84797 21.64 4.24639C21.9803 4.71822 22.1316 5.22936 22.1316 5.81914C22.1316 7.27392 20.9971 8.45348 19.598 8.45348C18.6904 8.45348 17.9341 8.02097 17.4047 7.11664C16.0811 4.91481 14.8711 2.51638 11.5433 2.51638C9.84162 2.51638 7.95086 3.49934 7.95086 5.66186C7.95086 11.481 24.3627 13.0144 24.3627 21.5072Z" fill="black"/>
<path d="M48.9961 20.9174C51.0759 13.3683 54.6305 9.08257 61.3616 9.08257C67.4499 9.08257 71.2314 12.6606 71.2314 17.8506V25.2425C71.2314 25.9502 71.3827 26.422 72.0255 26.3041C72.555 26.1861 72.9331 26.5007 72.9331 27.0904C72.9331 28.1914 71.0045 29.3709 68.7734 29.3709C66.5423 29.3709 64.7272 27.9948 64.7272 25.557V16.671C64.1978 17.3001 63.4037 17.9292 62.3827 18.7156C60.4919 20.0917 59.849 21.979 59.849 23.6697C59.8112 25.9502 60.9835 27.9161 62.6474 26.6973C63.0255 26.422 63.5171 26.6579 63.5171 27.1298C63.5171 27.3263 63.4793 27.5229 63.3659 27.6802C62.4961 28.9384 60.9835 30 58.4877 30C55.4247 30 53.3448 27.8375 53.3448 24.6527C53.3448 20.9174 57.1641 18.9122 59.8868 17.6147C62.5717 16.3565 64.16 14.9803 64.16 13.0537C64.16 11.9135 63.1768 10.9699 60.9835 10.9699C56.8238 10.9699 53.1935 12.6606 50.849 20.9174C49.9036 24.2595 48.9961 27.4836 48.9582 27.6802C48.6935 28.6239 47.8238 29.3709 46.765 29.3709H44.7608C43.8154 29.3709 42.9078 28.7418 42.6053 27.7588L39.3532 17.3395L36.2901 27.6802C36.0254 28.5845 35.1557 29.3709 34.0969 29.3709H32.0926C31.1473 29.3709 30.2775 28.7418 29.9372 27.7588L26.2691 14.7837C25.3237 11.4417 23.8111 11.7169 23.8111 10.6553C23.8111 10.1442 24.1893 9.71167 24.7943 9.71167H31.5632C32.5464 9.71167 32.9246 10.1442 32.9246 10.6553C32.9246 11.7169 32.0548 11.4417 33.0002 14.7837L35.5338 23.7877L39.1641 11.4417C39.4666 10.4194 40.3364 9.71167 41.3574 9.71167H42.1893C43.2103 9.71167 44.0801 10.4194 44.3826 11.4024L48.2019 23.7877L48.9961 20.9174Z" fill="black"/>
<path d="M94.3212 24.2988C94.3212 27.7588 95.3422 27.3657 95.3422 28.4273C95.3422 28.9384 94.9262 29.3709 94.359 29.3709H87.8169C87.2119 29.3709 86.7959 28.9384 86.7959 28.4273C86.7959 27.3657 87.8169 27.7588 87.8169 24.2988V15.8453C87.8169 13.7615 86.5312 12.8571 85.2077 12.8571C83.7329 12.8571 82.1447 13.9974 82.1447 15.8453V24.2988C82.1447 27.7588 83.1657 27.3657 83.1657 28.4273C83.1657 28.9384 82.7497 29.3709 82.1447 29.3709H75.6026C75.0354 29.3709 74.6194 28.9384 74.6194 28.4273C74.6194 27.3657 75.6404 27.7588 75.6404 24.2988V17.0642C75.6404 13.6042 74.6194 13.9974 74.6194 12.9358C74.6194 12.3853 75.0354 11.9921 75.6026 11.9921C78.1741 11.9921 79.006 9.71167 80.9724 9.71167C81.6153 9.71167 82.1447 10.2621 82.1447 10.9305V12.1494C83.7707 10.2621 86.0774 9.08257 88.3085 9.08257C91.5985 9.08257 94.3212 11.363 94.3212 17.1035V24.2988Z" fill="black"/>
<path d="M106.03 10.9699C103.27 10.9699 102.475 16.9463 103.572 20.7995C104.253 19.6592 105.652 19.1481 107.316 18.4797C111.059 16.9463 108.98 10.9699 106.03 10.9699ZM96.6897 19.5413C96.6897 13.7615 100.433 9.08257 106.03 9.08257C110.228 9.08257 114.387 11.8349 115.257 15.2556C116.996 22.097 101.492 18.519 104.858 23.7484C105.992 25.5177 107.732 26.6186 110.19 26.422C113.253 26.1468 114.576 24.3775 114.841 24.0629C115.333 23.5125 115.862 23.827 116.013 23.9843C116.354 24.3381 116.316 24.7706 116.202 25.0066C114.992 27.3657 111.702 30 107.24 30C101.417 30 96.6897 25.3211 96.6897 19.5413Z" fill="black"/>
<path d="M126.747 10.9699C123.987 10.9699 123.193 16.9463 124.289 20.7995C124.97 19.6592 126.369 19.1481 128.033 18.4797C131.777 16.9463 129.697 10.9699 126.747 10.9699ZM117.407 19.5413C117.407 13.7615 121.15 9.08257 126.747 9.08257C130.945 9.08257 135.104 11.8349 135.974 15.2556C137.714 22.097 122.209 18.519 125.575 23.7484C126.709 25.5177 128.449 26.6186 130.907 26.422C133.97 26.1468 135.293 24.3775 135.558 24.0629C136.05 23.5125 136.579 23.827 136.73 23.9843C137.071 24.3381 137.033 24.7706 136.919 25.0066C135.709 27.3657 132.419 30 127.957 30C122.134 30 117.407 25.3211 117.407 19.5413Z" fill="black"/>
</svg>
