<svg width="50" height="50" viewBox="0 0 50 50" fill="none" xmlns="http://www.w3.org/2000/svg">
<circle cx="25" cy="25" r="25" fill="#E83647"/>
<circle cx="25" cy="25" r="20" fill="white"/>
<path d="M21.6989 30.6364V30.483C21.7159 28.8551 21.8864 27.5597 22.2102 26.5966C22.5341 25.6335 22.9943 24.8537 23.5909 24.2571C24.1875 23.6605 24.9034 23.1108 25.7386 22.608C26.2415 22.3011 26.6932 21.9389 27.0938 21.5213C27.4943 21.0952 27.8097 20.6051 28.0398 20.0511C28.2784 19.4972 28.3977 18.8835 28.3977 18.2102C28.3977 17.375 28.2017 16.6506 27.8097 16.0369C27.4176 15.4233 26.8935 14.9503 26.2372 14.6179C25.581 14.2855 24.8523 14.1193 24.0511 14.1193C23.3523 14.1193 22.679 14.2642 22.0312 14.554C21.3835 14.8437 20.8423 15.2997 20.4077 15.9219C19.973 16.544 19.7216 17.358 19.6534 18.3636H16.4318C16.5 16.9148 16.875 15.6747 17.5568 14.6435C18.2472 13.6122 19.1548 12.8239 20.2798 12.2784C21.4134 11.733 22.6705 11.4602 24.0511 11.4602C25.5511 11.4602 26.8551 11.7585 27.9631 12.3551C29.0795 12.9517 29.9403 13.7699 30.5455 14.8097C31.1591 15.8494 31.4659 17.0341 31.4659 18.3636C31.4659 19.3011 31.321 20.1491 31.0312 20.9077C30.75 21.6662 30.3409 22.3437 29.804 22.9403C29.2756 23.5369 28.6364 24.0653 27.8864 24.5256C27.1364 24.9943 26.5355 25.4886 26.0838 26.0085C25.6321 26.5199 25.304 27.1293 25.0994 27.8366C24.8949 28.544 24.7841 29.4261 24.767 30.483V30.6364H21.6989ZM23.3352 38.2045C22.7045 38.2045 22.1634 37.9787 21.7116 37.527C21.2599 37.0753 21.0341 36.5341 21.0341 35.9034C21.0341 35.2727 21.2599 34.7315 21.7116 34.2798C22.1634 33.8281 22.7045 33.6023 23.3352 33.6023C23.9659 33.6023 24.5071 33.8281 24.9588 34.2798C25.4105 34.7315 25.6364 35.2727 25.6364 35.9034C25.6364 36.321 25.5298 36.7045 25.3168 37.054C25.1122 37.4034 24.8352 37.6847 24.4858 37.8977C24.1449 38.1023 23.7614 38.2045 23.3352 38.2045Z" fill="#E83647"/>
</svg>
