<svg width="11" height="14" viewBox="0 0 11 14" fill="none" xmlns="http://www.w3.org/2000/svg">
<path d="M10.1208 14.0001H0.811332C0.699915 14.0001 0.589694 13.9771 0.487541 13.9326C0.385387 13.8881 0.293487 13.8231 0.217566 13.7416C0.141644 13.66 0.0833286 13.5637 0.0462511 13.4586C0.00917362 13.3536 -0.00586973 13.242 0.00205595 13.1309L0.62002 4.45232C0.636391 4.22343 0.738855 4.00923 0.906787 3.85283C1.07472 3.69643 1.29566 3.60945 1.52514 3.60938H2.84026L2.73887 5.11618C2.73887 5.12432 2.73887 5.13283 2.73887 5.14097C2.73863 5.23541 2.77518 5.32624 2.84077 5.3942C2.90635 5.46215 2.99582 5.50191 3.09021 5.50504C3.1846 5.50816 3.27651 5.47442 3.34645 5.41095C3.41638 5.34748 3.45886 5.25927 3.46488 5.16502L3.57035 3.61086H7.36325L7.46871 5.16502C7.47519 5.2612 7.51961 5.35086 7.59219 5.41429C7.66478 5.47772 7.75959 5.50971 7.85577 5.50324C7.95195 5.49676 8.04161 5.45234 8.10504 5.37975C8.16847 5.30716 8.20046 5.21235 8.19399 5.11618L8.09186 3.60938H9.40698C9.63646 3.60945 9.8574 3.69643 10.0253 3.85283C10.1933 4.00923 10.2957 4.22343 10.3121 4.45232L10.9301 13.1309C10.938 13.242 10.9229 13.3536 10.8859 13.4586C10.8488 13.5637 10.7905 13.66 10.7145 13.7416C10.6386 13.8231 10.5467 13.8881 10.4446 13.9326C10.3424 13.9771 10.2322 14.0001 10.1208 14.0001Z" fill="black"/>
<path d="M7.83138 5.50396C7.73922 5.50398 7.65049 5.46898 7.58317 5.40605C7.51584 5.34312 7.47494 5.25696 7.46874 5.16501L7.36328 3.61084H8.09263L8.19402 5.11764C8.19715 5.16719 8.1901 5.21686 8.1733 5.26358C8.15649 5.3103 8.13029 5.35308 8.09631 5.38928C8.06233 5.42548 8.02129 5.45433 7.97572 5.47406C7.93016 5.49378 7.88103 5.50396 7.83138 5.50396Z" fill="white"/>
<path d="M3.56976 3.60939L3.4643 5.16356C3.45828 5.25781 3.4158 5.34601 3.34586 5.40948C3.27592 5.47295 3.18402 5.5067 3.08963 5.50357C2.99524 5.50045 2.90577 5.46069 2.84019 5.39273C2.7746 5.32477 2.73805 5.23395 2.73828 5.1395C2.73828 5.13136 2.73828 5.12285 2.73828 5.11471L2.83968 3.60791L3.56976 3.60939Z" fill="white"/>
<path d="M8.09144 3.60929H7.3621L7.28328 2.45069C7.25241 1.98965 7.04748 1.55756 6.71001 1.24193C6.37253 0.926295 5.92772 0.7507 5.46564 0.7507C5.00357 0.7507 4.55876 0.926295 4.22128 1.24193C3.8838 1.55756 3.67888 1.98965 3.64801 2.45069L3.56919 3.60929H2.83984L2.92273 2.3752C2.96673 1.73077 3.25377 1.12707 3.72582 0.68616C4.19786 0.245245 4.81971 0 5.46564 0C6.11158 0 6.73342 0.245245 7.20547 0.68616C7.67752 1.12707 7.96455 1.73077 8.00855 2.3752L8.09144 3.60929Z" fill="black"/>
</svg>
