<svg width="12" height="15" viewBox="0 0 12 15" fill="none" xmlns="http://www.w3.org/2000/svg">
<path d="M6.19419 14.5495C4.66881 14.5495 3.14382 14.5402 1.61844 14.5532C0.799254 14.5599 0.342991 13.9179 0.448669 13.2933C0.521948 12.8615 0.516934 12.4175 0.549332 11.9787C0.594071 11.3742 0.64151 10.7701 0.686635 10.1655C0.718646 9.74086 0.747573 9.31617 0.779199 8.89148C0.825481 8.27284 0.873305 7.65495 0.918816 7.03631C0.951213 6.59304 0.979754 6.14978 1.01138 5.70651C1.03028 5.44828 1.04108 5.18857 1.07502 4.93182C1.13943 4.44323 1.59607 4.05756 2.11058 4.05161C2.50063 4.04691 2.89043 4.04691 3.27997 4.05161C3.3976 4.05161 3.43077 4.01446 3.44272 3.90299C3.49363 3.43409 3.48129 2.95887 3.5808 2.49443C3.81954 1.36267 4.92799 0.513669 6.12631 0.482087C7.37399 0.449019 8.67181 1.34409 8.84267 2.79613C8.88702 3.16768 8.90901 3.54295 8.93138 3.91711C8.93793 4.02857 8.98267 4.05607 9.08951 4.05756C9.49833 4.06313 9.90715 4.03452 10.3152 4.07502C10.5644 4.09878 10.7979 4.20325 10.9775 4.37135C11.1571 4.53946 11.2722 4.76127 11.3041 5.00056C11.3458 5.34499 11.3646 5.69202 11.3916 6.03794C11.4374 6.62401 11.4825 7.20995 11.527 7.79577C11.5598 8.22937 11.5899 8.66372 11.6223 9.09621C11.6674 9.70073 11.7148 10.3052 11.7592 10.9098C11.7924 11.3556 11.8221 11.8056 11.8545 12.2533C11.8826 12.6457 11.9046 13.0384 11.9428 13.43C11.9952 13.9703 11.5683 14.5551 10.7989 14.5514C9.26383 14.5436 7.7292 14.5495 6.19419 14.5495ZM6.18069 13.8406H10.7846C11.0993 13.8406 11.2158 13.7291 11.2042 13.4319C11.198 13.2747 11.1845 13.1179 11.1734 12.9607C11.1429 12.5179 11.1147 12.0742 11.0808 11.6313C11.0276 10.9254 10.9682 10.2194 10.9153 9.51346C10.8717 8.93198 10.8363 8.34975 10.7931 7.76716C10.729 6.90441 10.66 6.04203 10.596 5.17891C10.5763 4.91436 10.4182 4.76128 10.1428 4.75942C9.81575 4.75719 9.48715 4.75942 9.16163 4.75942C8.99694 4.75942 8.98421 4.7754 8.99926 4.93926C9.017 5.13284 9.04014 5.32604 9.05094 5.51999C9.06714 5.82578 8.94603 5.98778 8.70382 5.99781C8.46161 6.00785 8.32933 5.8425 8.3139 5.54377C8.3031 5.32679 8.27533 5.11054 8.26762 4.89318C8.2626 4.78172 8.20706 4.75757 8.10254 4.75757C6.82799 4.76004 5.55318 4.76004 4.27811 4.75757C4.16781 4.75757 4.10918 4.78023 4.10378 4.89876C4.09299 5.13915 4.07447 5.37918 4.0521 5.61883C4.02973 5.85848 3.87392 6.00933 3.66063 5.99707C3.44041 5.98407 3.31005 5.83284 3.32123 5.58242C3.33126 5.35948 3.35479 5.13952 3.376 4.91845C3.38603 4.8133 3.36559 4.75422 3.23291 4.75682C2.85764 4.76425 2.48237 4.75682 2.1071 4.76165C1.94666 4.76165 1.84214 4.85788 1.80357 5.00836C1.76848 5.14547 1.78082 5.2848 1.76963 5.42339C1.72258 6.01788 1.6772 6.61298 1.63349 7.20871C1.60032 7.65458 1.57178 8.10416 1.53822 8.55188C1.49464 9.13336 1.44643 9.71447 1.40362 10.296C1.36968 10.7526 1.34191 11.21 1.30797 11.667C1.26477 12.2481 1.21309 12.8292 1.17414 13.4107C1.15293 13.7254 1.27557 13.8402 1.60495 13.8402L6.18069 13.8406ZM6.18069 4.0505C6.80125 4.0505 7.42181 4.04752 8.04238 4.0531C8.17582 4.0531 8.21786 4.00665 8.19164 3.88924C8.16927 3.78855 8.17467 3.68637 8.16734 3.58494C8.14613 3.30367 8.13726 3.02018 8.09483 2.74151C7.95946 1.84978 7.07508 1.09552 5.99556 1.19547C5.17213 1.27127 4.44434 1.8795 4.292 2.66534C4.21486 3.07071 4.21872 3.48536 4.17359 3.89444C4.15971 4.01854 4.20869 4.05384 4.33481 4.05273C4.95074 4.04752 5.56629 4.05013 6.18223 4.05013L6.18069 4.0505Z" fill="black" stroke="#D5BFB3" stroke-width="0.0879505"/>
</svg>
